<svg width="76" height="64" viewBox="0 0 76 64" fill="none" xmlns="http://www.w3.org/2000/svg">
<path d="M42.5 5L43.9528 13.8691L49.7987 7.22245L46.3971 15.4981L54.78 13.1842L47.6041 18.239L55.8626 20.9924L47.1906 21.2214L52.7026 28.168L45.2878 23.4986L46.3034 32.4329L42.5 24.3475L38.6966 32.4329L39.7122 23.4986L32.2974 28.168L37.8094 21.2214L29.1374 20.9924L37.3959 18.239L30.22 13.1842L38.6029 15.4981L35.2013 7.22245L41.0472 13.8691L42.5 5Z" fill="#BAFF00"/>
<rect width="40" height="38" fill="#9068F4"/>
<rect x="10.7526" y="13.4865" width="66.7668" height="34.995" rx="17.4975" transform="rotate(14.2092 10.7526 13.4865)" fill="#9068F4"/>
<path d="M9.81475 26.092L8.93415 26.0799C8.88555 25.8259 8.79747 25.6022 8.66991 25.4086C8.54472 25.2151 8.39069 25.052 8.20784 24.9193C8.02739 24.7842 7.82636 24.682 7.60475 24.6127C7.38314 24.5433 7.15161 24.507 6.91016 24.5037C6.46986 24.4976 6.06946 24.6034 5.70895 24.821C5.35082 25.0387 5.06343 25.3626 4.8468 25.7929C4.63253 26.2233 4.52107 26.7533 4.51242 27.3829C4.50377 28.0126 4.60062 28.5455 4.80299 28.9815C5.00771 29.4176 5.28609 29.7494 5.63811 29.9768C5.9925 30.2042 6.38985 30.3209 6.83015 30.327C7.0716 30.3303 7.30404 30.3004 7.52747 30.2371C7.7509 30.1739 7.95464 30.0785 8.13871 29.9508C8.32517 29.8207 8.48363 29.6607 8.6141 29.4707C8.74696 29.2784 8.84115 29.0572 8.89668 28.8069L9.77728 28.819C9.70589 29.1898 9.58059 29.5207 9.40139 29.8118C9.22218 30.103 9.00097 30.3497 8.73775 30.5521C8.47456 30.7521 8.18008 30.9031 7.85431 31.0052C7.5309 31.1073 7.18574 31.1558 6.81883 31.1508C6.19862 31.1423 5.64915 30.9832 5.1704 30.6735C4.69165 30.3639 4.31764 29.9279 4.04835 29.3654C3.77906 28.8029 3.64969 28.1382 3.66023 27.3712C3.67077 26.6043 3.81836 25.9433 4.10299 25.3885C4.38763 24.8336 4.77349 24.408 5.26056 24.1117C5.74763 23.8153 6.30127 23.6714 6.92148 23.6799C7.28839 23.6849 7.63209 23.7429 7.95257 23.8539C8.27541 23.9649 8.56561 24.1251 8.82317 24.3346C9.08077 24.5418 9.29514 24.7933 9.46628 25.0893C9.63745 25.3829 9.75361 25.7171 9.81475 26.092ZM13.2696 31.2536C12.7772 31.2469 12.3468 31.1237 11.9783 30.8843C11.6123 30.6449 11.328 30.313 11.1255 29.8888C10.9253 29.4646 10.8291 28.9708 10.8368 28.4074C10.8446 27.8393 10.9544 27.3448 11.1662 26.9239C11.3803 26.503 11.6737 26.1779 12.0462 25.9487C12.421 25.7194 12.8546 25.6082 13.347 25.6149C13.8394 25.6217 14.2686 25.7448 14.6347 25.9842C15.0031 26.2237 15.2874 26.5567 15.4875 26.9833C15.69 27.4099 15.7874 27.9072 15.7795 28.4753C15.7718 29.0387 15.6609 29.5297 15.4468 29.9482C15.235 30.3667 14.9417 30.6906 14.5669 30.9198C14.1944 31.1491 13.7619 31.2604 13.2696 31.2536ZM13.2799 30.5008C13.6539 30.506 13.963 30.4143 14.2071 30.2259C14.4511 30.0375 14.6333 29.7878 14.7536 29.477C14.8739 29.1661 14.9366 28.8284 14.9416 28.4638C14.9466 28.0993 14.8932 27.7588 14.7816 27.4424C14.6699 27.1259 14.4947 26.869 14.2559 26.6716C14.0171 26.4741 13.7107 26.3729 13.3367 26.3677C12.9627 26.3626 12.6536 26.4554 12.4095 26.6462C12.1654 26.837 11.9831 27.089 11.8628 27.4023C11.7425 27.7155 11.6798 28.0544 11.6748 28.4189C11.6698 28.7835 11.7232 29.1228 11.8349 29.4369C11.9466 29.7509 12.1218 30.0055 12.3606 30.2005C12.5995 30.3956 12.9059 30.4957 13.2799 30.5008ZM17.9047 27.9221L17.8596 31.203L17.0216 31.1915L17.0966 25.7375L17.9062 25.7486L17.8945 26.6008L17.9655 26.6018C18.0971 26.3266 18.2943 26.1067 18.557 25.9422C18.8197 25.7754 19.157 25.6948 19.5689 25.7004C19.9382 25.7055 20.2603 25.7857 20.5352 25.941C20.8101 26.0939 21.0224 26.3242 21.172 26.6316C21.3217 26.9368 21.3934 27.3213 21.387 27.7853L21.3394 31.2509L20.5014 31.2393L20.5483 27.8306C20.5542 27.4021 20.4475 27.0668 20.2283 26.8247C20.0091 26.5801 19.7053 26.4552 19.3171 26.4499C19.0496 26.4462 18.8097 26.5009 18.5975 26.614C18.3876 26.7272 18.2207 26.8941 18.0969 27.115C17.9731 27.3359 17.9091 27.6049 17.9047 27.9221ZM25.3176 25.8505L25.3078 26.5606L22.4814 26.5218L22.4911 25.8116L25.3176 25.8505ZM23.3329 24.5162L24.1709 24.5278L24.0994 29.7261C24.0962 29.9628 24.1281 30.1409 24.1951 30.2602C24.2645 30.3771 24.3534 30.4565 24.4617 30.4982C24.5725 30.5376 24.6894 30.5582 24.8125 30.5599C24.9048 30.5611 24.9806 30.5574 25.0399 30.5488C25.0993 30.5378 25.1467 30.5289 25.1824 30.5223L25.3425 31.2774C25.2853 31.298 25.2058 31.3182 25.1037 31.3381C25.0016 31.3604 24.8724 31.3704 24.7161 31.3683C24.4794 31.365 24.2481 31.3109 24.0223 31.206C23.7988 31.1012 23.6139 30.9435 23.4676 30.7332C23.3237 30.5228 23.254 30.2591 23.2583 29.9419L23.3329 24.5162ZM28.1064 31.4717C27.7608 31.4669 27.448 31.3975 27.1681 31.2635C26.8882 31.127 26.6671 30.9334 26.5049 30.6826C26.3426 30.4294 26.2639 30.1252 26.2688 29.7701C26.2731 29.4577 26.3381 29.2052 26.4639 29.0128C26.5897 28.818 26.7563 28.6664 26.9638 28.558C27.1712 28.4496 27.3996 28.3698 27.6489 28.3188C27.9006 28.2654 28.1534 28.2239 28.4071 28.1943C28.7391 28.1562 29.0082 28.1279 29.2145 28.1095C29.4231 28.0887 29.5751 28.0517 29.6706 27.9985C29.7684 27.9454 29.8182 27.8514 29.8201 27.7165L29.8205 27.6881C29.8253 27.3377 29.7331 27.0642 29.5441 26.8674C29.3574 26.6707 29.0711 26.5697 28.6852 26.5644C28.2852 26.5589 27.9703 26.6422 27.7406 26.8142C27.511 26.9863 27.3486 27.1711 27.2536 27.3687L26.4621 27.0737C26.6087 26.7442 26.8016 26.4888 27.0409 26.3074C27.2825 26.1237 27.5447 25.9971 27.8274 25.9276C28.1125 25.8557 28.3924 25.8217 28.667 25.8254C28.8421 25.8279 29.043 25.8519 29.2697 25.8977C29.4988 25.941 29.719 26.0281 29.9303 26.1589C30.1439 26.2897 30.32 26.4851 30.4585 26.745C30.597 27.005 30.6632 27.3516 30.6573 27.7848L30.6079 31.3782L29.7699 31.3667L29.7801 30.6281L29.7374 30.6275C29.679 30.7451 29.5826 30.8705 29.4482 31.0036C29.3137 31.1367 29.1358 31.2491 28.9144 31.3407C28.6929 31.4324 28.4236 31.476 28.1064 31.4717ZM28.2445 30.7207C28.576 30.7252 28.8562 30.664 29.0852 30.5369C29.3166 30.4098 29.4917 30.2442 29.6106 30.0398C29.7318 29.8355 29.7939 29.6197 29.797 29.3924L29.8076 28.6255C29.7715 28.6676 29.6928 28.7056 29.5716 28.7394C29.4528 28.7709 29.3151 28.7986 29.1585 28.8225C29.0043 28.8441 28.8537 28.8633 28.7067 28.8803C28.562 28.8948 28.4447 28.9074 28.3546 28.918C28.1364 28.9434 27.9322 28.9868 27.7419 29.0481C27.5541 29.1071 27.4013 29.1985 27.2836 29.3224C27.1682 29.4439 27.1091 29.6112 27.1062 29.8243C27.1022 30.1154 27.2069 30.3371 27.4202 30.4892C27.636 30.6389 27.9108 30.7161 28.2445 30.7207ZM34.3515 31.5433C33.8402 31.5363 33.4016 31.4095 33.0356 31.163C32.6697 30.9164 32.3902 30.5799 32.1971 30.1535C32.0041 29.727 31.9113 29.2416 31.9188 28.6971C31.9264 28.1432 32.0349 27.6557 32.2443 27.2348C32.4561 26.8115 32.7471 26.4829 33.1173 26.2488C33.4899 26.0125 33.9224 25.8977 34.4148 25.9044C34.7983 25.9097 35.1429 25.9855 35.4487 26.1317C35.7545 26.278 36.0039 26.4803 36.1968 26.7386C36.3898 26.997 36.5076 27.2969 36.5503 27.6385L35.7123 27.627C35.6518 27.3775 35.5128 27.1554 35.2953 26.9607C35.0802 26.7635 34.788 26.6625 34.4187 26.6574C34.092 26.6529 33.8044 26.7342 33.5559 26.9012C33.3097 27.066 33.1159 27.3012 32.9744 27.6071C32.8353 27.9106 32.7629 28.2683 32.7572 28.6802C32.7514 29.1016 32.8127 29.4694 32.9409 29.7837C33.0716 30.098 33.2576 30.3432 33.4991 30.5194C33.7429 30.6956 34.0305 30.786 34.3619 30.7905C34.5797 30.7935 34.7779 30.7584 34.9564 30.685C35.135 30.6117 35.2868 30.5049 35.4119 30.3646C35.5369 30.2242 35.6268 30.055 35.6817 29.8569L36.5196 29.8684C36.4679 30.1897 36.3467 30.478 36.1562 30.7335C35.968 30.9866 35.7202 31.1868 35.4128 31.3341C35.1077 31.4791 34.754 31.5488 34.3515 31.5433ZM40.1697 26.0545L40.1599 26.7647L37.3335 26.7258L37.3433 26.0157L40.1697 26.0545ZM38.185 24.7203L39.023 24.7318L38.9516 29.9302C38.9483 30.1669 38.9802 30.3449 39.0472 30.4642C39.1166 30.5812 39.2055 30.6606 39.3139 30.7023C39.4246 30.7417 39.5415 30.7622 39.6646 30.7639C39.7569 30.7652 39.8327 30.7615 39.892 30.7529C39.9514 30.7418 39.9989 30.733 40.0345 30.7264L40.1946 31.4815C40.1375 31.502 40.0579 31.5223 39.9558 31.5422C39.8537 31.5644 39.7245 31.5745 39.5683 31.5723C39.3315 31.5691 39.1003 31.515 38.8744 31.4101C38.6509 31.3052 38.466 31.1476 38.3198 30.9372C38.1759 30.7269 38.1061 30.4631 38.1104 30.1459L38.185 24.7203Z" fill="white"/>
<path d="M39.7803 36.8047L40.6609 36.8168L40.5947 41.6317C40.5879 42.1288 40.4646 42.571 40.2249 42.9584C39.9876 43.3434 39.6555 43.6455 39.2287 43.8645C38.8019 44.0812 38.3033 44.1857 37.7328 44.1778C37.1623 44.17 36.6667 44.0519 36.246 43.8236C35.8254 43.5928 35.5005 43.2818 35.2715 42.8903C35.0449 42.4966 34.935 42.0511 34.9418 41.554L35.008 36.7391L35.8886 36.7512L35.8234 41.4951C35.8185 41.8502 35.8923 42.1673 36.0447 42.4464C36.1972 42.7231 36.4167 42.9428 36.7034 43.1053C36.9924 43.2656 37.3393 43.3485 37.7441 43.354C38.1489 43.3596 38.4979 43.2863 38.7912 43.134C39.0846 42.9794 39.3101 42.7659 39.4677 42.4934C39.6278 42.2186 39.7102 41.9036 39.7151 41.5486L39.7803 36.8047ZM46.1273 39.932L45.3716 40.1347C45.326 40.0085 45.2578 39.8857 45.1671 39.766C45.0788 39.6441 44.9571 39.543 44.8019 39.4627C44.6468 39.3824 44.4473 39.3406 44.2035 39.3373C43.8697 39.3327 43.5905 39.4058 43.3659 39.5566C43.1436 39.7051 43.0309 39.8965 43.0277 40.1309C43.0248 40.3392 43.0983 40.5047 43.2481 40.6275C43.398 40.7504 43.6333 40.8542 43.9542 40.9391L44.761 41.1491C45.247 41.2742 45.6079 41.4602 45.8436 41.7073C46.0794 41.9521 46.1947 42.265 46.1894 42.6461C46.1851 42.9586 46.0914 43.2367 45.9081 43.4804C45.7271 43.7242 45.4759 43.9149 45.1544 44.0525C44.8329 44.1901 44.4602 44.2561 44.0365 44.2502C43.4802 44.2426 43.0215 44.1155 42.6602 43.8691C42.299 43.6226 42.073 43.2667 41.9824 42.8014L42.7805 42.6135C42.8522 42.9081 42.9924 43.1302 43.201 43.2799C43.4121 43.4295 43.6892 43.5068 44.0325 43.5115C44.4231 43.5168 44.7343 43.4382 44.9662 43.2757C45.2005 43.1108 45.3192 42.9112 45.3225 42.6768C45.3251 42.4875 45.261 42.3279 45.1302 42.1983C44.9994 42.0663 44.7971 41.9664 44.5234 41.8987L43.6173 41.6732C43.1195 41.548 42.7551 41.3595 42.5242 41.1077C42.2956 40.8536 42.1839 40.5383 42.1891 40.162C42.1933 39.8542 42.2835 39.5832 42.4595 39.3488C42.638 39.1145 42.8784 38.932 43.1809 38.8012C43.4858 38.6704 43.8299 38.6077 44.2134 38.6129C44.7531 38.6203 45.1752 38.7445 45.4797 38.9855C45.7866 39.2264 46.0024 39.5419 46.1273 39.932Z" fill="white"/>
</svg>
