<svg width="138" height="110" viewBox="0 0 138 110" fill="none" xmlns="http://www.w3.org/2000/svg">
<path d="M79.9584 9.40687L82.6916 26.0929L93.6899 13.5881L87.2902 29.1577L103.062 24.8044L89.561 34.3143L105.098 39.4946L88.7831 39.9255L99.1533 52.9946L85.2033 44.2097L87.114 61.0184L79.9584 45.8068L72.8028 61.0184L74.7134 44.2097L60.7634 52.9946L71.1337 39.9255L54.8183 39.4946L70.3557 34.3143L56.855 24.8044L72.6266 29.1577L66.2269 13.5881L77.2252 26.0929L79.9584 9.40687Z" fill="#BAFF00"/>
<rect width="75.2549" height="71.4922" fill="#9068F4"/>
<rect x="24.162" y="33" width="116.496" height="49.5473" rx="24.7736" transform="rotate(14.2092 24.162 33)" fill="#9068F4"/>
<path d="M5.79348 36.7728C5.80749 35.7528 6.05004 34.8411 6.52112 34.0375C6.99235 33.2239 7.62608 32.5925 8.42232 32.1434C9.22857 31.6945 10.1166 31.4766 11.0866 31.49C12.2264 31.5056 13.2176 31.7943 14.0599 32.3559C14.9023 32.9175 15.5115 33.706 15.8876 34.7212L14.2528 34.6988C13.9715 34.0649 13.5582 33.5741 13.0129 33.2266C12.4776 32.8792 11.83 32.7003 11.0701 32.6899C10.3401 32.6798 9.68286 32.8408 9.09825 33.1728C8.51363 33.5048 8.05201 33.9835 7.71338 34.6089C7.3749 35.2243 7.19988 35.952 7.18834 36.7919C7.17694 37.6218 7.3319 38.354 7.65321 38.9885C7.97466 39.613 8.42302 40.0992 8.9983 40.4471C9.57357 40.7951 10.2262 40.974 10.9561 40.9841C11.716 40.9945 12.3682 40.8385 12.9127 40.5159C13.4673 40.1835 13.894 39.7043 14.1926 39.0784L15.8274 39.1008C15.4237 40.0954 14.7931 40.8618 13.9357 41.4001C13.0783 41.9283 12.0797 42.1846 10.9398 42.169C9.96991 42.1556 9.08809 41.9185 8.29435 41.4576C7.51074 40.9867 6.89453 40.3432 6.4457 39.527C5.99687 38.7107 5.77946 37.7927 5.79348 36.7728ZM21.4001 42.3577C20.6302 42.3471 19.9327 42.1625 19.3075 41.8039C18.6924 41.4454 18.2093 40.9437 17.8581 40.2988C17.517 39.6441 17.3524 38.8918 17.364 38.0418C17.3756 37.2019 17.5657 36.4645 17.9345 35.8295C18.3134 35.1846 18.8201 34.6965 19.4548 34.3652C20.0895 34.0239 20.7968 33.8586 21.5768 33.8693C22.3567 33.88 23.0592 34.0647 23.6844 34.4233C24.3096 34.772 24.7978 35.2687 25.149 35.9136C25.5102 36.5586 25.6849 37.3061 25.6733 38.156C25.6616 39.0059 25.4613 39.7532 25.0724 40.398C24.6936 41.0328 24.1819 41.5208 23.5371 41.862C22.8924 42.2032 22.1801 42.3684 21.4001 42.3577ZM21.4166 41.1578C21.9066 41.1645 22.3681 41.0559 22.8012 40.8318C23.2343 40.6077 23.5841 40.2675 23.8503 39.8111C24.1266 39.3549 24.2693 38.7968 24.2784 38.1368C24.2875 37.4769 24.1652 36.9152 23.9115 36.4516C23.6579 35.9881 23.3226 35.6435 22.9056 35.4177C22.4888 35.182 22.0354 35.0607 21.5455 35.054C21.0455 35.0471 20.584 35.1558 20.1609 35.38C19.7479 35.5944 19.4133 35.9298 19.157 36.3863C18.9007 36.8428 18.768 37.4011 18.7589 38.061C18.7497 38.7309 18.8619 39.2975 19.0956 39.7608C19.3392 40.2242 19.6645 40.5737 20.0713 40.8093C20.4782 41.0349 20.9267 41.1511 21.4166 41.1578ZM31.5308 33.9911C32.5307 34.0048 33.3364 34.3209 33.948 34.9394C34.5597 35.5478 34.8577 36.422 34.842 37.5619L34.7754 42.4065L33.4256 42.3879L33.4895 37.7384C33.5007 36.9184 33.3043 36.2907 32.9003 35.8551C32.4964 35.4095 31.9394 35.1818 31.2295 35.1721C30.5096 35.1622 29.9315 35.3792 29.4954 35.8233C29.0693 36.2675 28.8503 36.9195 28.8385 37.7795L28.776 42.324L27.4111 42.3053L27.5241 34.086L28.8889 34.1048L28.8729 35.2747C29.1486 34.8584 29.5181 34.5385 29.9812 34.3148C30.4543 34.0913 30.9708 33.9834 31.5308 33.9911ZM38.7673 35.3656L38.7007 40.2102C38.6952 40.6101 38.7763 40.8963 38.944 41.0686C39.1117 41.2309 39.4056 41.315 39.8256 41.3207L40.8305 41.3345L40.8146 42.4894L39.5847 42.4725C38.8248 42.4621 38.2573 42.2793 37.8821 41.9241C37.5069 41.5689 37.3249 40.9914 37.3358 40.1914L37.4024 35.3469L36.3375 35.3323L36.353 34.2074L37.4179 34.222L37.4463 32.1522L38.8112 32.1709L38.7827 34.2407L40.9275 34.2702L40.9121 35.3951L38.7673 35.3656ZM42.0152 38.3655C42.0268 37.5256 42.2069 36.793 42.5555 36.1678C42.9043 35.5325 43.376 35.0439 43.9708 34.7021C44.5755 34.3603 45.2429 34.1945 45.9728 34.2045C46.6927 34.2144 47.3155 34.378 47.8412 34.6952C48.3669 35.0125 48.7565 35.4079 49.01 35.8814L49.0306 34.3816L50.4105 34.4005L50.2976 42.6197L48.9177 42.6008L48.9387 41.0709C48.6622 41.5472 48.2517 41.9416 47.7074 42.2541C47.1731 42.5568 46.5511 42.7033 45.8411 42.6935C45.1112 42.6835 44.4537 42.4944 43.8687 42.1264C43.2838 41.7583 42.8257 41.247 42.4947 40.5923C42.1637 39.9377 42.0038 39.1955 42.0152 38.3655ZM48.9744 38.4762C48.9829 37.8562 48.8653 37.3146 48.6217 36.8512C48.378 36.3878 48.0429 36.0331 47.6162 35.7873C47.1997 35.5315 46.7364 35.4001 46.2265 35.3931C45.7165 35.3861 45.2499 35.4997 44.8267 35.7339C44.4034 35.9681 44.0636 36.3135 43.8073 36.77C43.551 37.2265 43.4186 37.7648 43.4101 38.3847C43.4015 39.0147 43.5189 39.5663 43.7624 40.0397C44.0061 40.5031 44.3362 40.8627 44.7527 41.1184C45.1693 41.3642 45.6327 41.4905 46.1426 41.4975C46.6526 41.5046 47.1192 41.391 47.5424 41.1567C47.9758 40.9127 48.3207 40.5624 48.577 40.1059C48.8334 39.6393 48.9659 39.0961 48.9744 38.4762ZM52.1508 38.5198C52.1625 37.6699 52.3426 36.9323 52.6913 36.307C53.04 35.6718 53.5168 35.1833 54.1215 34.8415C54.7363 34.5 55.4336 34.3345 56.2135 34.3452C57.2234 34.3591 58.05 34.6155 58.6932 35.1144C59.3464 35.6134 59.772 36.2993 59.9701 37.1721L58.5002 37.1519C58.3671 36.65 58.0975 36.2513 57.6916 35.9557C57.2956 35.6602 56.7976 35.5084 56.1977 35.5001C55.4177 35.4894 54.7841 35.7507 54.2967 36.2841C53.8095 36.8074 53.5591 37.5591 53.5457 38.539C53.5321 39.5289 53.7615 40.2971 54.2341 40.8437C54.7066 41.3902 55.3328 41.6688 56.1128 41.6795C56.7127 41.6878 57.2146 41.5547 57.6184 41.2802C58.0222 41.0057 58.3027 40.6095 58.4598 40.0916L59.9297 40.1118C59.6981 40.9487 59.2489 41.6176 58.582 42.1185C57.9152 42.6094 57.0868 42.848 56.0969 42.8344C55.317 42.8237 54.6244 42.6392 54.0193 42.2808C53.4242 41.9226 52.961 41.4212 52.6298 40.7766C52.2987 40.132 52.139 39.3797 52.1508 38.5198ZM63.4769 35.7052L63.4103 40.5497C63.4048 40.9497 63.4859 41.2358 63.6535 41.4081C63.8213 41.5704 64.1152 41.6545 64.5352 41.6603L65.5401 41.6741L65.5242 42.829L64.2943 42.8121C63.5344 42.8016 62.9668 42.6188 62.5917 42.2636C62.2165 41.9084 62.0344 41.3309 62.0454 40.5309L62.112 35.6864L61.0471 35.6718L61.0626 34.5469L62.1275 34.5615L62.1559 32.4917L63.5208 32.5105L63.4923 34.5803L65.6371 34.6097L65.6217 35.7346L63.4769 35.7052Z" fill="white"/>
<path d="M63.71 66.5786L63.6191 73.193C63.6064 74.1229 63.8219 74.8159 64.2656 75.272C64.7194 75.7283 65.3513 75.962 66.1612 75.9732C66.9611 75.9841 67.5891 75.7678 68.0453 75.324C68.5114 74.8803 68.7509 74.1936 68.7636 73.2637L68.8545 66.6493L70.2194 66.668L70.1287 73.2674C70.1168 74.1373 69.9317 74.8699 69.5735 75.465C69.2154 76.0501 68.7344 76.4836 68.1305 76.7653C67.5366 77.0472 66.8696 77.183 66.1297 77.1728C65.3898 77.1627 64.7218 77.0085 64.1259 76.7103C63.5399 76.4122 63.076 75.9658 62.7341 75.371C62.4024 74.7664 62.2425 74.0291 62.2545 73.1592L62.3451 66.5598L63.71 66.5786ZM75.2605 77.3283C74.6305 77.3196 74.067 77.2069 73.57 76.99C73.073 76.7632 72.6822 76.4578 72.3975 76.0738C72.1128 75.6799 71.959 75.2327 71.9358 74.7324L73.3457 74.7517C73.3801 75.1623 73.5655 75.4998 73.9018 75.7645C74.2482 76.0293 74.7014 76.1655 75.2614 76.1732C75.7813 76.1803 76.1929 76.071 76.496 75.8451C76.7991 75.6193 76.9531 75.3314 76.9579 74.9814C76.9628 74.6214 76.8065 74.3543 76.4889 74.1799C76.1714 73.9955 75.6788 73.8137 75.0112 73.6345C74.4035 73.4662 73.9057 73.2993 73.518 73.134C73.1403 72.9588 72.8137 72.7092 72.5381 72.3854C72.2727 72.0517 72.1436 71.6199 72.1509 71.09C72.1567 70.67 72.287 70.2868 72.5417 69.9402C72.7965 69.5937 73.1553 69.3236 73.618 69.13C74.0808 68.9263 74.6072 68.8285 75.1971 68.8366C76.1071 68.8491 76.8388 69.0892 77.3925 69.5569C77.9461 70.0245 78.2374 70.6586 78.2664 71.459L76.9015 71.4403C76.8774 71.0099 76.7072 70.6625 76.3908 70.3982C76.0844 70.1339 75.6662 69.9982 75.1363 69.9909C74.6463 69.9842 74.2549 70.0838 73.9621 70.2898C73.6692 70.4958 73.5204 70.7688 73.5158 71.1087C73.5121 71.3787 73.594 71.6049 73.7615 71.7872C73.9391 71.9596 74.1572 72.1026 74.4156 72.2162C74.6842 72.3199 75.0526 72.44 75.5208 72.5764C76.1085 72.7445 76.5863 72.9111 76.9541 73.0762C77.322 73.2312 77.6338 73.4655 77.8895 73.7791C78.1552 74.0928 78.2896 74.4996 78.2928 74.9997C78.2866 75.4497 78.156 75.8529 77.9011 76.2095C77.6462 76.566 77.2873 76.8461 76.8245 77.0498C76.3718 77.2436 75.8504 77.3364 75.2605 77.3283Z" fill="white"/>
</svg>
