<svg width="138" height="110" viewBox="0 0 138 110" fill="none" xmlns="http://www.w3.org/2000/svg">
<path d="M79.9584 9.40687L82.6916 26.0929L93.6899 13.5881L87.2902 29.1577L103.062 24.8044L89.561 34.3143L105.098 39.4946L88.7831 39.9255L99.1533 52.9946L85.2033 44.2097L87.114 61.0184L79.9584 45.8068L72.8028 61.0184L74.7134 44.2097L60.7634 52.9946L71.1337 39.9255L54.8183 39.4946L70.3557 34.3143L56.855 24.8044L72.6266 29.1577L66.2269 13.5881L77.2252 26.0929L79.9584 9.40687Z" fill="#BAFF00"/>
<rect width="75.2549" height="71.4922" fill="#9068F4"/>
<rect x="24.162" y="33" width="116.496" height="49.5473" rx="24.7736" transform="rotate(14.2092 24.162 33)" fill="#9068F4"/>
<path d="M5.6682 37.3741C5.68344 36.2649 5.93698 35.2816 6.4288 34.4243C6.92077 33.5563 7.59668 32.8882 8.45653 32.4199C9.32719 31.9412 10.3065 31.7093 11.3944 31.7242C12.7276 31.7425 13.864 32.1102 14.8035 32.8272C15.7431 33.5441 16.3645 34.5128 16.6678 35.7331L13.6601 35.6917C13.4425 35.2194 13.1275 34.8577 12.7149 34.6066C12.313 34.3558 11.8507 34.2267 11.3281 34.2195C10.4855 34.208 9.79886 34.4919 9.26818 35.0713C8.7375 35.6508 8.46542 36.4311 8.45194 37.4123C8.43846 38.3936 8.68899 39.1811 9.20355 39.7749C9.71811 40.3687 10.3967 40.6714 11.2393 40.6829C11.7619 40.6901 12.2275 40.5738 12.6362 40.3341C13.0555 40.0945 13.3804 39.7416 13.6108 39.2754L16.6185 39.3167C16.2819 40.5282 15.6341 41.4794 14.6752 42.1703C13.7164 42.8505 12.5704 43.1815 11.2372 43.1631C10.1493 43.1482 9.17668 42.8948 8.31936 42.403C7.47285 41.9006 6.81555 41.2142 6.34747 40.3437C5.87938 39.4732 5.65296 38.4833 5.6682 37.3741ZM22.303 43.3632C21.4284 43.3512 20.6417 43.1537 19.9429 42.7707C19.2548 42.3879 18.7128 41.8471 18.317 41.1482C17.9319 40.4495 17.7458 39.6362 17.7585 38.7083C17.7711 37.7911 17.9848 36.9886 18.3996 36.3009C18.8146 35.6025 19.3766 35.0715 20.0857 34.7079C20.7948 34.3443 21.5866 34.1685 22.4612 34.1805C23.3357 34.1925 24.1224 34.39 24.8212 34.773C25.52 35.156 26.0673 35.7022 26.4629 36.4117C26.8587 37.1105 27.0502 37.9186 27.0376 38.8358C27.025 39.7531 26.8059 40.5608 26.3803 41.259C25.9655 41.9467 25.3982 42.4723 24.6785 42.8358C23.9694 43.1994 23.1776 43.3752 22.303 43.3632ZM22.3355 40.9954C22.8581 41.0026 23.3034 40.8167 23.6713 40.4377C24.0499 40.0589 24.2441 39.5122 24.2539 38.7976C24.2637 38.083 24.0899 37.5312 23.7326 37.1422C23.3859 36.7534 22.9512 36.5555 22.4286 36.5483C21.8953 36.5409 21.4501 36.7268 21.0928 37.106C20.7357 37.4744 20.5522 38.0213 20.5422 38.7466C20.5324 39.4612 20.6955 40.0128 21.0316 40.4014C21.3783 40.7902 21.8129 40.9882 22.3355 40.9954ZM33.9911 34.3709C35.0364 34.3853 35.8636 34.738 36.4728 35.4291C37.0929 36.1097 37.3948 37.0419 37.3785 38.2258L37.3068 43.4413L34.5871 43.404L34.6537 38.5564C34.6619 37.9591 34.5136 37.4931 34.2089 37.1582C33.9041 36.8233 33.4904 36.6523 32.9678 36.6451C32.4452 36.6379 32.0269 36.7975 31.7131 37.1239C31.3992 37.4503 31.2382 37.9121 31.23 38.5094L31.1634 43.3569L28.4277 43.3193L28.5503 34.3922L31.2861 34.4298L31.2698 35.6137C31.5525 35.2228 31.9301 34.9187 32.4024 34.7011C32.875 34.4729 33.4045 34.3629 33.9911 34.3709ZM44.2153 41.216L44.1834 43.5358L42.7916 43.5167C41.7997 43.5031 41.0297 43.2525 40.4817 42.7649C39.9338 42.2666 39.6674 41.4682 39.6825 40.3697L39.7313 36.818L38.6434 36.8031L38.6746 34.5313L39.7625 34.5462L39.7924 32.3704L42.5282 32.408L42.4983 34.5838L44.2901 34.6084L44.2589 36.8802L42.467 36.8556L42.4178 40.4393C42.4141 40.7059 42.4755 40.8988 42.6019 41.0179C42.7283 41.1369 42.9408 41.1985 43.2394 41.2026L44.2153 41.216ZM45.2249 39.0697C45.2375 38.1525 45.4192 37.3495 45.77 36.661C46.1315 35.9725 46.6135 35.4458 47.2159 35.0807C47.8183 34.7156 48.4875 34.5381 49.2234 34.5482C49.8527 34.5569 50.4002 34.6924 50.866 34.9548C51.3424 35.2174 51.7057 35.5584 51.956 35.9779L51.9734 34.714L54.7091 34.7516L54.5864 43.6788L51.8507 43.6412L51.8681 42.3773C51.5957 42.7896 51.2178 43.1204 50.7343 43.3698C50.2615 43.6193 49.7105 43.7398 49.0812 43.7311C48.3559 43.7212 47.6972 43.5254 47.1051 43.1439C46.5131 42.7518 46.0459 42.2066 45.7034 41.5085C45.3718 40.7999 45.2123 39.987 45.2249 39.0697ZM51.912 39.1776C51.9214 38.495 51.7368 37.9537 51.3583 37.5538C50.9904 37.1541 50.5345 36.9505 49.9906 36.943C49.4466 36.9355 48.9799 37.1264 48.5906 37.5158C48.212 37.8946 48.018 38.4254 48.0086 39.108C47.9992 39.7906 48.1784 40.3371 48.5462 40.7475C48.9247 41.1474 49.3859 41.3511 49.9299 41.3586C50.4738 41.366 50.9352 41.175 51.3139 40.7855C51.7033 40.3962 51.9027 39.8602 51.912 39.1776ZM56.083 39.2349C56.0958 38.307 56.2936 37.499 56.6764 36.8108C57.0699 36.1228 57.6051 35.5968 58.2822 35.2327C58.9699 34.8688 59.7511 34.6929 60.6257 34.7049C61.7456 34.7203 62.6748 35.0264 63.4133 35.6233C64.1625 36.2203 64.6471 37.0537 64.8671 38.1235L61.9554 38.0835C61.7195 37.3975 61.2495 37.0497 60.5456 37.04C60.0443 37.0331 59.6416 37.2249 59.3376 37.6155C59.0337 37.9953 58.8767 38.5479 58.8668 39.2732C58.8568 39.9984 58.9984 40.5604 59.2916 40.9591C59.585 41.3472 59.9823 41.5447 60.4836 41.5516C61.1875 41.5613 61.6668 41.2265 61.9215 40.5472L64.8333 40.5872C64.5843 41.6293 64.077 42.4437 63.3116 43.0306C62.5461 43.6174 61.6087 43.9033 60.4995 43.888C59.6249 43.876 58.8489 43.6787 58.1714 43.296C57.5046 42.9134 56.984 42.3729 56.6096 41.6744C56.2458 40.976 56.0703 40.1628 56.083 39.2349ZM71.2596 41.5876L71.2278 43.9074L69.8359 43.8883C68.844 43.8747 68.074 43.6241 67.526 43.1365C66.9781 42.6382 66.7117 41.8398 66.7268 40.7413L66.7756 37.1896L65.6877 37.1747L65.7189 34.9029L66.8068 34.9178L66.8367 32.742L69.5725 32.7796L69.5426 34.9554L71.3344 34.98L71.3032 37.2518L69.5114 37.2272L69.4621 40.8109C69.4585 41.0775 69.5198 41.2704 69.6462 41.3894C69.7726 41.5085 69.9851 41.5701 70.2837 41.5742L71.2596 41.5876Z" fill="white"/>
<path d="M64.8968 66.8179L64.8045 73.5373C64.7953 74.2092 64.9535 74.7288 65.2791 75.096C65.6048 75.4631 66.0876 75.6511 66.7275 75.6599C67.3675 75.6687 67.8606 75.4941 68.2069 75.1362C68.5532 74.7782 68.7309 74.2633 68.7401 73.5914L68.8325 66.872L71.5682 66.9096L71.4761 73.613C71.4623 74.6155 71.2374 75.4605 70.8012 76.1479C70.3651 76.8353 69.7819 77.35 69.0518 77.692C68.3324 78.0342 67.5301 78.1992 66.6448 78.187C65.7596 78.1748 64.9673 77.9933 64.2681 77.6423C63.5796 77.2808 63.0375 76.7506 62.6418 76.0518C62.2461 75.3423 62.0552 74.4863 62.069 73.4837L62.1611 66.7803L64.8968 66.8179ZM76.9649 78.3448C76.1863 78.3341 75.4948 78.1913 74.8906 77.9163C74.2863 77.6413 73.8113 77.272 73.4656 76.8086C73.1201 76.3345 72.93 75.8091 72.8952 75.2326L75.599 75.2698C75.6267 75.5795 75.7673 75.8321 76.0206 76.0276C76.2739 76.2231 76.5873 76.3234 76.9606 76.3286C77.3019 76.3332 77.5641 76.2728 77.7471 76.1473C77.941 76.0113 78.0394 75.8367 78.0424 75.6234C78.0459 75.3674 77.9151 75.1789 77.6501 75.0579C77.3852 74.9263 76.9552 74.7817 76.3599 74.6241C75.722 74.466 75.1909 74.3041 74.7665 74.1382C74.3422 73.9617 73.9778 73.6953 73.6733 73.3391C73.369 72.9722 73.221 72.4848 73.2294 71.8769C73.2364 71.3649 73.3814 70.9029 73.6645 70.4907C73.9583 70.0681 74.3789 69.7378 74.9262 69.5C75.4842 69.2623 76.1418 69.1486 76.8991 69.159C78.019 69.1744 78.8951 69.4638 79.5274 70.0272C80.1704 70.5908 80.5336 71.3318 80.6169 72.2504L78.0892 72.2157C78.0508 71.9058 77.9155 71.6586 77.6833 71.474C77.4618 71.2896 77.1644 71.1949 76.7912 71.1897C76.4712 71.1853 76.225 71.246 76.0526 71.3716C75.8803 71.4866 75.7927 71.6507 75.7898 71.8641C75.7863 72.12 75.917 72.3138 76.1818 72.4455C76.4574 72.5773 76.8823 72.7111 77.4564 72.847C78.1154 73.0268 78.6516 73.2048 79.0653 73.3812C79.479 73.5469 79.838 73.8185 80.1422 74.1961C80.4572 74.5631 80.6157 75.056 80.6179 75.6747C80.6107 76.1974 80.4549 76.6646 80.1506 77.0765C79.857 77.4778 79.4314 77.792 78.8735 78.019C78.3263 78.2462 77.6901 78.3548 76.9649 78.3448Z" fill="white"/>
</svg>
